Coordinates
version=1
nRows=38
nColumns=12
inDegrees=yes

Units are S.I. units (second, meters, Newtons, ...)
Angles are in degrees

endheader
time	SC_y	SC_z	SC_x	AC_y	AC_z	AC_x	GH_y	GH_z	GH_yy	EL_x	PS_y
       0.0              -37.47          38.62          3.348          46.62         -6.487         -15.97          18.11         -5.257         -157.4          19.66          122.0
  0.004386              -37.47          38.62          3.358          46.62         -6.487         -15.97           18.1         -5.252         -157.4          19.67          122.0
  0.008772              -37.47          38.62          3.368          46.62         -6.486         -15.97           18.1         -5.247         -157.4          19.68          122.0
   0.01316              -37.46          38.62          3.378          46.62         -6.486         -15.96          18.09         -5.242         -157.3          19.68          122.0
   0.01754              -37.46          38.62          3.389          46.62         -6.486         -15.96          18.09         -5.237         -157.3          19.69          122.0
   0.02193              -37.46          38.62          3.401          46.62         -6.485         -15.96          18.08         -5.231         -157.3           19.7          122.0
   0.02631              -37.45          38.62          3.414          46.62         -6.485         -15.96          18.08         -5.225         -157.3          19.71          122.0
    0.0307              -37.45          38.62          3.428          46.62         -6.484         -15.96          18.07         -5.219         -157.3          19.72          122.0
   0.03509              -37.44          38.62          3.443          46.62         -6.484         -15.95          18.07         -5.212         -157.2          19.73          122.0
   0.03947              -37.44          38.62          3.459          46.62         -6.483         -15.95          18.06         -5.204         -157.2          19.74          122.0
   0.04386              -37.43          38.62          3.475          46.62         -6.483         -15.95          18.06         -5.196         -157.2          19.75          122.0
   0.04824              -37.43          38.62          3.494          46.62         -6.482         -15.95          18.05         -5.188         -157.1          19.77          122.0
   0.05263              -37.42          38.62          3.513          46.62         -6.482         -15.94          18.04         -5.178         -157.1          19.78          122.0
   0.05702              -37.41          38.61          3.535          46.62         -6.481         -15.94          18.03         -5.168         -157.1           19.8          122.0
    0.0614              -37.41          38.61          3.558          46.62          -6.48         -15.94          18.02         -5.158         -157.0          19.81          122.0
   0.06579               -37.4          38.61          3.583          46.62         -6.479         -15.93          18.01         -5.146         -157.0          19.83          122.0
   0.07017              -37.39          38.61           3.61          46.62         -6.479         -15.93           18.0         -5.133         -157.0          19.85          122.0
   0.07456              -37.38          38.61          3.639          46.61         -6.478         -15.92          17.99         -5.119         -156.9          19.87          122.0
   0.07894              -37.37          38.61          3.671          46.61         -6.477         -15.92          17.98         -5.104         -156.9           19.9          122.0
   0.08333              -37.36          38.61          3.707          46.61         -6.475         -15.91          17.96         -5.087         -156.8          19.92          122.0
   0.08772              -37.35           38.6          3.745          46.61         -6.474         -15.91          17.95         -5.069         -156.7          19.95          122.0
    0.0921              -37.33           38.6          3.788          46.61         -6.473          -15.9          17.93         -5.049         -156.7          19.98          122.0
   0.09649              -37.32           38.6          3.835          46.61         -6.471         -15.89          17.91         -5.026         -156.6          20.01          122.0
    0.1009               -37.3           38.6          3.887          46.61          -6.47         -15.89          17.89         -5.002         -156.5          20.05          122.0
    0.1053              -37.28           38.6          3.945           46.6         -6.468         -15.88          17.87         -4.974         -156.4          20.09          122.0
    0.1096              -37.26          38.59           4.01           46.6         -6.466         -15.87          17.84         -4.944         -156.3          20.14          122.0
     0.114              -37.24          38.59          4.083           46.6         -6.463         -15.86          17.81         -4.909         -156.2          20.19          122.0
    0.1184              -37.21          38.59          4.164           46.6         -6.461         -15.84          17.78         -4.871         -156.0          20.25          122.0
    0.1228              -37.18          38.58          4.257          46.59         -6.458         -15.83          17.74         -4.827         -155.9          20.32          122.0
    0.1272              -37.15          38.58          4.361          46.59         -6.454         -15.82           17.7         -4.778         -155.7           20.4          121.9
    0.1316              -37.11          38.57          4.481          46.59         -6.451          -15.8          17.66         -4.721         -155.5          20.48          121.9
     0.136              -37.06          38.56          4.618          46.58         -6.446         -15.78           17.6         -4.656         -155.3          20.58          121.9
    0.1403              -37.01          38.56          4.776          46.58         -6.441         -15.75          17.54         -4.582         -155.0           20.7          121.9
    0.1447              -36.95          38.55           4.96          46.57         -6.435         -15.72          17.46         -4.495         -154.7          20.83          121.9
    0.1491              -36.88          38.54          5.175          46.57         -6.428         -15.69          17.38         -4.393         -154.4          20.99          121.9
    0.1535               -36.8          38.53          5.429          46.56          -6.42         -15.65          17.28         -4.273         -154.0          21.17          121.9
    0.1579               -36.7          38.51          5.731          46.55          -6.41         -15.61          17.16          -4.13         -153.5          21.39          121.9
    0.1623              -36.58           38.5          6.092          46.54         -6.399         -15.55          17.01         -3.959         -152.9          21.65          121.9
